<svg xmlns="http://www.w3.org/2000/svg" xmlns:xlink="http://www.w3.org/1999/xlink" width="800" zoomAndPan="magnify" viewBox="0 0 600 159.000002" height="212" preserveAspectRatio="xMidYMid meet" version="1.0"><defs><g/></defs><g fill="#d4c0ff" fill-opacity="1"><g transform="translate(72.598382, 120.800064)"><g><path d="M 4.066406 -36.839844 C 4.445312 -32.140625 4.699219 -21.339844 4.699219 -14.863281 C 4.699219 -12.574219 4.699219 -10.796875 4.574219 -10.164062 C 4.445312 -9.398438 4.445312 -8.511719 4.445312 -7.75 C 4.445312 -4.574219 5.335938 -1.398438 8.765625 -0.636719 C 10.035156 -0.382812 11.433594 -0.253906 12.957031 -0.253906 C 16.132812 -0.253906 19.183594 -1.015625 20.453125 -3.8125 C 21.847656 -6.859375 22.101562 -10.035156 22.101562 -13.339844 C 22.101562 -16.515625 21.847656 -19.945312 21.722656 -23.121094 L 21.722656 -29.34375 C 21.722656 -36.710938 21.847656 -44.078125 21.847656 -51.449219 C 21.847656 -55.640625 21.847656 -59.957031 21.59375 -64.152344 C 21.214844 -70.121094 21.214844 -76.089844 21.214844 -82.0625 C 21.214844 -83.078125 21.339844 -84.222656 21.339844 -85.363281 C 21.339844 -88.285156 20.832031 -91.207031 17.65625 -91.207031 L 15.878906 -91.207031 C 13.847656 -91.207031 11.558594 -91.84375 9.527344 -91.84375 C 7.75 -91.84375 6.222656 -91.335938 5.460938 -89.558594 C 3.8125 -86.128906 3.429688 -73.933594 3.429688 -61.863281 C 3.429688 -51.828125 3.683594 -41.792969 4.066406 -36.839844 Z M 4.066406 -36.839844 "/></g></g></g><g fill="#d4c0ff" fill-opacity="1"><g transform="translate(98.258291, 120.800064)"><g><path d="M 12.195312 -0.253906 C 15.242188 -0.253906 19.5625 -0.507812 21.976562 -1.398438 C 24.390625 -2.160156 24.769531 -3.8125 24.769531 -6.605469 C 24.769531 -9.398438 24.261719 -13.59375 24.136719 -18.164062 C 23.882812 -22.867188 23.882812 -27.945312 23.882812 -32.140625 C 24.007812 -36.457031 24.136719 -39.886719 24.136719 -43.191406 C 24.007812 -46.367188 23.628906 -49.414062 23.246094 -51.703125 C 22.992188 -53.988281 22.738281 -55.511719 21.59375 -56.402344 C 20.578125 -57.164062 19.054688 -57.289062 17.023438 -57.289062 L 15.371094 -57.289062 C 12.574219 -57.035156 8.890625 -56.527344 7.113281 -55.257812 C 5.207031 -53.859375 5.082031 -51.703125 4.953125 -47.890625 L 4.445312 -33.664062 L 4.320312 -20.324219 C 4.445312 -16.386719 4.828125 -12.957031 5.082031 -9.910156 C 5.335938 -6.988281 5.335938 -4.320312 5.460938 -2.792969 C 5.460938 -1.398438 5.714844 -1.015625 6.605469 -0.761719 C 7.621094 -0.507812 9.144531 -0.253906 12.195312 -0.253906 Z M 9.65625 -63.769531 C 11.304688 -63.769531 12.703125 -63.898438 14.355469 -64.40625 C 17.023438 -65.167969 19.816406 -66.5625 22.359375 -68.722656 C 24.769531 -70.757812 26.675781 -73.425781 27.3125 -75.203125 C 27.4375 -75.582031 27.4375 -75.964844 27.4375 -76.34375 C 27.4375 -77.488281 26.804688 -78.25 25.914062 -79.011719 C 24.769531 -80.03125 23.246094 -81.046875 20.960938 -81.933594 C 18.800781 -82.695312 15.75 -83.332031 13.59375 -83.332031 C 11.433594 -83.207031 10.164062 -82.441406 8.765625 -81.171875 C 7.367188 -79.777344 6.097656 -77.996094 4.953125 -76.726562 C 3.8125 -75.457031 3.046875 -74.695312 2.160156 -74.441406 C 1.269531 -74.058594 0.253906 -74.058594 -0.636719 -73.425781 C -1.523438 -72.914062 -2.414062 -71.773438 -2.667969 -70.628906 L -2.792969 -69.992188 C -2.792969 -68.851562 -2.285156 -67.835938 -0.890625 -66.945312 C 0.761719 -65.675781 3.8125 -64.53125 6.480469 -64.023438 C 7.621094 -63.769531 8.636719 -63.769531 9.65625 -63.769531 Z M 9.65625 -63.769531 "/></g></g></g><g fill="#d4c0ff" fill-opacity="1"><g transform="translate(127.856111, 120.800064)"><g><path d="M 10.925781 -0.253906 C 13.085938 -0.253906 15.878906 -0.382812 17.402344 -0.636719 C 18.925781 -0.890625 19.183594 -1.144531 19.183594 -1.652344 C 19.308594 -2.03125 19.308594 -2.539062 19.4375 -4.828125 C 19.4375 -6.988281 19.5625 -10.925781 19.816406 -15.496094 C 19.945312 -20.070312 20.199219 -25.152344 20.707031 -29.472656 C 21.339844 -33.789062 22.101562 -37.347656 23.375 -40.269531 C 24.769531 -43.0625 26.550781 -45.351562 27.945312 -46.113281 C 28.453125 -46.367188 28.835938 -46.492188 29.21875 -46.492188 C 29.980469 -46.492188 30.488281 -45.984375 31.121094 -44.96875 C 32.011719 -43.445312 32.773438 -40.902344 33.28125 -36.585938 C 33.789062 -32.265625 33.789062 -26.167969 33.917969 -20.324219 C 33.917969 -14.480469 33.917969 -8.765625 34.042969 -5.714844 C 34.171875 -2.539062 34.296875 -2.03125 35.0625 -1.523438 C 35.824219 -1.015625 37.21875 -0.507812 39.378906 -0.507812 C 41.414062 -0.507812 44.332031 -0.761719 45.984375 -1.144531 C 47.507812 -1.398438 47.765625 -1.90625 48.144531 -5.84375 C 48.652344 -9.78125 49.289062 -17.277344 49.667969 -25.277344 L 49.921875 -37.726562 L 49.667969 -49.542969 C 49.289062 -56.78125 48.652344 -62.753906 46.746094 -66.945312 C 44.96875 -71.136719 41.921875 -73.804688 38.363281 -74.695312 C 37.21875 -75.074219 36.078125 -75.203125 34.804688 -75.203125 C 32.265625 -75.203125 29.726562 -74.441406 27.820312 -72.789062 C 24.898438 -70.503906 23.375 -66.308594 22.359375 -63.386719 C 21.46875 -60.847656 21.085938 -59.324219 20.832031 -59.324219 L 20.832031 -64.785156 C 20.832031 -67.453125 20.707031 -70.628906 20.453125 -72.535156 C 20.199219 -74.566406 19.691406 -75.203125 17.148438 -75.582031 C 15.878906 -75.835938 13.972656 -75.835938 12.195312 -75.835938 C 10.289062 -75.835938 8.511719 -75.835938 7.113281 -75.582031 C 4.574219 -75.074219 4.066406 -74.058594 3.9375 -72.660156 C 3.683594 -71.265625 3.683594 -69.484375 3.429688 -64.53125 C 3.304688 -59.703125 3.046875 -51.703125 3.046875 -44.96875 C 3.175781 -38.363281 3.558594 -33.15625 3.683594 -27.058594 L 3.558594 -10.035156 C 3.558594 -5.84375 3.9375 -3.9375 4.320312 -2.667969 C 4.699219 -1.523438 5.082031 -0.890625 6.097656 -0.636719 C 7.113281 -0.382812 8.765625 -0.253906 10.925781 -0.253906 Z M 10.925781 -0.253906 "/></g></g></g><g fill="#d4c0ff" fill-opacity="1"><g transform="translate(179.938107, 120.800064)"><g><path d="M 38.617188 -0.253906 C 39.886719 -0.253906 41.15625 -0.382812 42.175781 -0.507812 C 48.144531 -1.015625 49.160156 -2.285156 49.160156 -4.445312 L 48.90625 -7.496094 C 48.652344 -10.542969 48.78125 -12.320312 48.398438 -15.496094 C 48.273438 -16.640625 48.144531 -20.070312 48.144531 -25.023438 C 48.144531 -35.1875 48.527344 -51.828125 49.667969 -66.816406 C 50.050781 -71.519531 50.304688 -74.820312 50.304688 -76.980469 C 50.304688 -81.046875 49.289062 -81.679688 45.351562 -81.679688 L 40.269531 -81.554688 L 32.265625 -81.554688 C 28.964844 -81.554688 28.074219 -80.285156 28.074219 -75.964844 L 28.074219 -74.695312 C 28.074219 -70.628906 28.582031 -69.230469 29.089844 -59.449219 C 29.089844 -57.546875 28.582031 -57.546875 19.5625 -57.035156 C 7.75 -56.273438 2.921875 -44.207031 2.921875 -31.503906 C 2.921875 -18.292969 8.257812 -4.445312 16.386719 -2.160156 C 18.925781 -1.398438 21.59375 -1.015625 23.882812 -1.015625 C 26.675781 -1.015625 29.21875 -1.523438 30.996094 -2.285156 C 31.25 -2.285156 32.394531 -3.304688 33.15625 -3.304688 C 33.410156 -3.304688 33.535156 -3.304688 33.664062 -3.046875 C 34.171875 -0.761719 36.332031 -0.253906 38.617188 -0.253906 Z M 27.058594 -17.785156 C 26.042969 -17.785156 24.644531 -18.292969 22.992188 -19.691406 C 21.59375 -20.832031 21.085938 -21.847656 20.199219 -23.628906 C 19.183594 -25.789062 18.800781 -27.945312 18.800781 -29.980469 C 18.800781 -37.21875 23.753906 -43.191406 27.945312 -43.316406 C 28.582031 -43.316406 29.21875 -43.316406 29.21875 -43.191406 C 29.21875 -42.683594 30.867188 -34.296875 30.867188 -27.3125 C 30.867188 -22.230469 29.980469 -17.785156 27.058594 -17.785156 Z M 27.058594 -17.785156 "/></g></g></g><g fill="#d4c0ff" fill-opacity="1"><g transform="translate(231.639008, 120.800064)"><g><path d="M 24.769531 0.253906 C 28.453125 0.253906 32.519531 -0.507812 36.839844 -2.285156 C 44.84375 -5.714844 45.984375 -13.210938 46.492188 -19.183594 L 46.746094 -21.59375 C 46.746094 -31.503906 36.203125 -40.523438 31.121094 -42.300781 C 21.085938 -46.367188 18.292969 -52.082031 18.292969 -56.65625 C 18.292969 -59.703125 19.5625 -62.117188 20.707031 -63.386719 C 21.722656 -64.40625 23.5 -65.546875 25.535156 -65.546875 C 27.945312 -65.546875 30.742188 -63.640625 32.265625 -57.417969 C 32.773438 -56.148438 34.042969 -55.765625 35.570312 -55.765625 C 37.347656 -55.765625 39.253906 -56.148438 40.777344 -56.273438 C 44.714844 -56.78125 45.859375 -58.5625 45.859375 -61.101562 C 45.859375 -62.753906 45.351562 -64.660156 44.714844 -66.5625 C 43.0625 -71.265625 41.792969 -74.1875 33.664062 -76.34375 C 31.757812 -76.855469 29.34375 -77.234375 26.804688 -77.234375 C 19.945312 -77.234375 11.8125 -74.949219 7.496094 -67.835938 C 5.207031 -64.277344 3.683594 -58.5625 3.683594 -52.84375 C 3.683594 -49.667969 4.066406 -46.367188 5.207031 -43.445312 C 6.859375 -39.378906 11.433594 -35.949219 14.734375 -32.773438 C 20.578125 -27.4375 29.726562 -24.136719 29.726562 -19.183594 L 29.726562 -18.546875 C 29.21875 -16.261719 27.566406 -13.464844 25.277344 -13.464844 C 24.261719 -13.464844 23.121094 -14.101562 21.847656 -16.007812 C 20.199219 -18.292969 20.707031 -21.722656 17.65625 -21.722656 C 17.023438 -21.722656 16.386719 -21.59375 15.625 -21.339844 C 10.035156 -19.945312 4.574219 -18.546875 4.574219 -15.371094 C 4.574219 -14.863281 4.699219 -14.355469 4.953125 -13.71875 C 7.113281 -8.511719 7.75 -4.445312 16.515625 -1.144531 C 18.671875 -0.382812 21.59375 0.253906 24.769531 0.253906 Z M 24.769531 0.253906 "/></g></g></g><g fill="#d4c0ff" fill-opacity="1"><g transform="translate(279.910115, 120.800064)"><g><path d="M 28.199219 -0.253906 C 40.015625 -0.382812 43.699219 -4.066406 48.527344 -8.511719 C 52.082031 -11.6875 53.351562 -14.101562 53.351562 -16.261719 C 53.351562 -19.054688 51.320312 -21.339844 50.050781 -24.261719 C 49.160156 -26.167969 47.890625 -27.691406 46.367188 -27.691406 C 45.984375 -27.691406 45.476562 -27.566406 44.96875 -27.183594 C 38.871094 -22.484375 36.710938 -18.292969 31.375 -18.292969 L 30.867188 -18.292969 C 23.753906 -18.546875 21.847656 -20.707031 20.453125 -23.628906 C 19.816406 -24.898438 19.054688 -27.691406 19.054688 -29.089844 C 19.054688 -29.597656 19.183594 -29.980469 19.4375 -29.980469 C 19.691406 -29.980469 20.070312 -29.851562 20.453125 -29.34375 C 22.484375 -27.3125 25.277344 -26.550781 28.328125 -26.550781 C 32.394531 -26.550781 36.710938 -28.074219 39.378906 -30.488281 C 45.859375 -36.332031 48.527344 -45.351562 48.527344 -53.859375 L 48.398438 -56.148438 C 48.019531 -61.101562 46.746094 -66.183594 43.445312 -69.992188 C 40.015625 -73.933594 35.316406 -75.835938 29.980469 -76.855469 C 28.074219 -77.234375 26.296875 -77.363281 24.644531 -77.363281 C 3.175781 -77.363281 1.652344 -50.304688 1.652344 -37.980469 L 1.652344 -36.078125 C 1.777344 -26.296875 0.761719 -0.253906 27.566406 -0.253906 Z M 25.152344 -43.445312 C 23.5 -43.445312 19.308594 -44.84375 19.054688 -46.492188 L 18.925781 -48.273438 C 18.925781 -50.558594 19.4375 -53.351562 20.070312 -55.257812 C 21.976562 -60.339844 23.882812 -61.230469 26.675781 -61.484375 L 27.3125 -61.484375 C 29.980469 -61.484375 32.140625 -59.832031 32.519531 -54.75 L 32.519531 -53.859375 C 32.519531 -53.097656 32.519531 -51.957031 32.265625 -51.320312 C 31.121094 -47.128906 28.582031 -43.699219 25.40625 -43.570312 Z M 25.152344 -43.445312 "/></g></g></g><g fill="#d4c0ff" fill-opacity="1"><g transform="translate(333.643487, 120.800064)"><g><path d="M 34.171875 -0.253906 C 35.824219 -0.253906 37.347656 -0.382812 38.871094 -0.761719 C 42.175781 -1.523438 45.351562 -3.175781 47.253906 -6.988281 C 49.160156 -10.796875 49.921875 -16.769531 50.175781 -28.582031 L 50.175781 -32.773438 C 50.175781 -42.808594 49.921875 -55.511719 49.921875 -64.53125 L 49.921875 -68.214844 C 49.921875 -74.949219 50.050781 -78.25 50.050781 -80.15625 C 50.050781 -81.171875 50.050781 -81.679688 49.921875 -82.1875 C 49.542969 -83.585938 48.273438 -83.96875 45.351562 -84.09375 C 44.207031 -84.222656 42.683594 -84.222656 41.15625 -84.222656 L 35.441406 -84.09375 C 32.902344 -83.839844 32.011719 -83.460938 31.886719 -79.519531 L 31.886719 -77.363281 C 31.886719 -73.042969 32.265625 -67.074219 32.519531 -61.484375 L 32.648438 -55.765625 C 32.648438 -51.574219 32.394531 -48.019531 31.886719 -45.859375 C 30.996094 -42.554688 29.597656 -41.792969 27.566406 -41.667969 L 27.058594 -41.667969 C 25.152344 -41.667969 22.867188 -42.429688 21.976562 -46.492188 C 21.46875 -48.527344 21.214844 -51.449219 21.214844 -54.625 C 21.214844 -58.308594 21.46875 -62.371094 21.722656 -65.800781 L 22.738281 -78.632812 L 22.867188 -81.046875 C 22.867188 -81.933594 22.738281 -82.441406 22.484375 -82.824219 C 22.101562 -83.585938 21.214844 -83.96875 18.292969 -84.347656 L 13.339844 -84.601562 C 11.304688 -84.601562 9.144531 -84.476562 7.621094 -84.09375 C 4.828125 -83.460938 4.191406 -81.808594 3.9375 -75.964844 C 3.8125 -73.550781 3.8125 -70.25 3.8125 -66.691406 L 3.9375 -52.335938 C 4.066406 -44.714844 4.066406 -39.886719 5.335938 -35.949219 C 6.734375 -32.011719 9.273438 -28.964844 12.574219 -26.929688 C 15.625 -25.152344 19.308594 -24.261719 22.738281 -24.261719 L 23.375 -24.261719 C 27.058594 -24.261719 30.234375 -25.152344 31.757812 -25.40625 L 32.773438 -25.535156 C 33.15625 -25.535156 33.28125 -25.40625 33.28125 -25.023438 L 33.15625 -24.007812 C 33.027344 -22.613281 32.648438 -20.070312 32.265625 -18.546875 C 31.886719 -17.148438 31.375 -16.640625 30.359375 -16.515625 C 29.472656 -16.515625 28.199219 -16.769531 26.167969 -17.53125 C 24.136719 -18.292969 21.339844 -19.5625 19.945312 -20.324219 L 18.039062 -21.339844 C 17.910156 -21.46875 17.910156 -21.46875 17.53125 -21.46875 L 16.640625 -21.59375 C 16.261719 -21.59375 15.878906 -21.59375 15.496094 -21.339844 C 14.863281 -21.085938 14.226562 -20.324219 13.339844 -18.164062 C 12.320312 -15.878906 11.050781 -12.320312 10.417969 -10.289062 C 10.164062 -9.398438 10.035156 -8.890625 10.035156 -8.511719 C 10.035156 -7.875 10.289062 -7.621094 10.796875 -7.113281 C 11.6875 -6.351562 13.210938 -5.207031 16.386719 -4.066406 C 19.4375 -2.921875 24.007812 -1.652344 28.074219 -0.890625 C 30.234375 -0.507812 32.265625 -0.253906 34.171875 -0.253906 Z M 34.171875 -0.253906 "/></g></g></g><g fill="#d4c0ff" fill-opacity="1"><g transform="translate(385.217368, 120.800064)"><g/></g></g><g fill="#d4c0ff" fill-opacity="1"><g transform="translate(449.748241, 120.800064)"><g><path d="M 16.386719 -0.253906 C 17.53125 -0.253906 19.4375 -0.382812 20.707031 -0.890625 C 21.59375 -1.523438 21.722656 -3.175781 21.722656 -4.574219 C 21.722656 -5.589844 21.46875 -6.859375 21.46875 -8.765625 C 21.339844 -10.417969 21.339844 -11.6875 21.339844 -12.832031 C 21.339844 -14.863281 21.46875 -15.878906 22.230469 -15.878906 C 23.753906 -15.878906 27.566406 -11.433594 36.457031 -2.414062 C 37.347656 -1.398438 38.363281 -1.015625 39.507812 -1.015625 C 41.921875 -1.015625 44.332031 -2.921875 46.238281 -5.84375 C 46.875 -6.734375 47.890625 -7.75 47.890625 -8.765625 L 47.890625 -8.890625 C 47.890625 -12.195312 43.445312 -16.132812 40.523438 -19.691406 C 36.585938 -24.644531 27.566406 -31.25 27.3125 -32.902344 C 27.3125 -34.550781 35.0625 -41.792969 37.472656 -43.953125 L 44.207031 -50.683594 C 44.714844 -51.066406 45.222656 -51.574219 45.222656 -52.210938 L 45.097656 -52.71875 C 44.589844 -54.242188 42.683594 -56.273438 41.03125 -59.070312 C 40.269531 -60.339844 38.109375 -63.515625 36.839844 -63.515625 L 36.457031 -63.386719 C 32.394531 -60.722656 26.929688 -55.132812 23.121094 -51.320312 C 22.613281 -50.941406 22.230469 -50.683594 22.101562 -50.683594 C 21.976562 -50.683594 21.847656 -51.066406 21.847656 -52.210938 L 22.230469 -61.863281 L 22.359375 -69.613281 L 22.230469 -76.726562 L 22.484375 -83.078125 C 22.484375 -89.304688 21.214844 -89.558594 15.625 -89.558594 L 11.304688 -89.558594 C 5.082031 -89.558594 5.207031 -89.175781 4.953125 -82.1875 C 4.320312 -71.773438 4.320312 -63.898438 3.9375 -50.429688 C 3.9375 -44.96875 3.558594 -23.882812 3.558594 -14.988281 L 3.558594 -12.195312 C 3.683594 -9.144531 3.8125 -6.351562 4.320312 -4.191406 C 5.082031 -1.015625 4.699219 -0.761719 8.382812 -0.636719 C 8.382812 -0.636719 14.988281 -0.253906 16.386719 -0.253906 Z M 16.386719 -0.253906 "/></g></g></g></svg>